<svg width="1000" height="1000" xmlns="http://www.w3.org/2000/svg">

 <g>
  <title>Layer 1</title>
  <g stroke="null">
   <path stroke="null" stroke-width="38.051" d="m501.07063,163.07937a133.18,160.36741 0 0 1 133.18,160.36741a133.18,160.36741 0 0 1 -133.18,160.36741a133.18,160.36741 0 0 1 -133.18,-160.36741a133.18,160.36741 0 0 1 133.18,-160.36741m-266.36,114.54626c21.308,0 41.095,6.87275 58.218,19.24337c-5.7076,65.52089 10.274,130.57698 42.997,181.43986c-19.025,43.98604 -57.076,74.22562 -101.22,74.22562a114.15,137.45262 0 0 1 -114.15,-137.45262a114.15,137.45262 0 0 1 114.15,-137.45262m532.71,0a114.15,137.45262 0 0 1 114.15,137.45262a114.15,137.45262 0 0 1 -114.15,137.45262c-44.139,0 -82.19,-30.24078 -101.22,-74.22562c32.724,-50.85807 48.705,-115.92018 42.997,-181.43986c17.123,-12.37134 36.909,-19.24337 58.218,-19.24337m-513.69,469.63881c0,-94.84411 110.73,-171.81878 247.33,-171.81878s247.33,76.97467 247.33,171.81878l0,80.1825l-494.66,0l0,-80.1825m-209.28,80.1825l0,-68.72751c0,-63.68819 71.916,-117.29531 169.33,-132.87688c-22.45,31.15713 -36.148,74.22562 -36.148,121.41347l0,80.1825l-133.18,0m913.22,0l-133.18,0l0,-80.1825c0,-47.19267 -13.698,-90.26236 -36.148,-121.41347c97.41,15.57796 169.33,69.18629 169.33,132.87688l-0.002,68.71908z"/>
  </g>
 </g>
</svg>